<mxfile host="app.diagrams.net" modified="2023-12-06T22:00:35.039Z" agent="Mozilla/5.0 (Macintosh; Intel Mac OS X 10_15_7) AppleWebKit/537.36 (KHTML, like Gecko) Chrome/120.0.0.0 Safari/537.36" etag="5fHz1plpXXC9M7X3JFp-" version="22.1.7" type="device">
  <diagram name="Page-1" id="6SwZJ3op6rpgz1IL6REp">
    <mxGraphModel dx="1357" dy="926" grid="1" gridSize="10" guides="1" tooltips="1" connect="1" arrows="1" fold="1" page="1" pageScale="1" pageWidth="827" pageHeight="1169" math="0" shadow="0">
      <root>
        <mxCell id="0" />
        <mxCell id="1" parent="0" />
        <mxCell id="IELXht5eR1evjBUBIcLk-11" value="" style="whiteSpace=wrap;html=1;fillColor=#dae8fc;strokeColor=#6c8ebf;" vertex="1" parent="1">
          <mxGeometry x="260" y="100" width="570" height="270" as="geometry" />
        </mxCell>
        <mxCell id="IELXht5eR1evjBUBIcLk-16" style="edgeStyle=orthogonalEdgeStyle;rounded=0;orthogonalLoop=1;jettySize=auto;html=1;" edge="1" parent="1" source="IELXht5eR1evjBUBIcLk-1" target="IELXht5eR1evjBUBIcLk-14">
          <mxGeometry relative="1" as="geometry" />
        </mxCell>
        <mxCell id="IELXht5eR1evjBUBIcLk-1" value="" style="sketch=0;points=[[0,0,0],[0.25,0,0],[0.5,0,0],[0.75,0,0],[1,0,0],[0,1,0],[0.25,1,0],[0.5,1,0],[0.75,1,0],[1,1,0],[0,0.25,0],[0,0.5,0],[0,0.75,0],[1,0.25,0],[1,0.5,0],[1,0.75,0]];outlineConnect=0;fontColor=#232F3E;fillColor=#ED7100;strokeColor=#ffffff;dashed=0;verticalLabelPosition=bottom;verticalAlign=top;align=center;html=1;fontSize=12;fontStyle=0;aspect=fixed;shape=mxgraph.aws4.resourceIcon;resIcon=mxgraph.aws4.ec2_image_builder;" vertex="1" parent="1">
          <mxGeometry x="480" y="187" width="93" height="93" as="geometry" />
        </mxCell>
        <mxCell id="IELXht5eR1evjBUBIcLk-2" value="" style="whiteSpace=wrap;html=1;aspect=fixed;fillColor=#fff2cc;strokeColor=#d6b656;" vertex="1" parent="1">
          <mxGeometry x="80" y="164" width="140" height="140" as="geometry" />
        </mxCell>
        <mxCell id="IELXht5eR1evjBUBIcLk-3" value="Manual activities" style="text;html=1;strokeColor=none;fillColor=none;align=center;verticalAlign=middle;whiteSpace=wrap;rounded=0;fontStyle=1" vertex="1" parent="1">
          <mxGeometry x="85" y="134" width="130" height="30" as="geometry" />
        </mxCell>
        <mxCell id="IELXht5eR1evjBUBIcLk-4" value="Create the base AMIs from RHEL and OEL by installing the Amazon SSM Agent" style="text;html=1;strokeColor=none;fillColor=none;align=center;verticalAlign=middle;whiteSpace=wrap;rounded=0;" vertex="1" parent="1">
          <mxGeometry x="95" y="189" width="110" height="90" as="geometry" />
        </mxCell>
        <mxCell id="IELXht5eR1evjBUBIcLk-5" value="" style="shape=image;verticalLabelPosition=bottom;labelBackgroundColor=default;verticalAlign=top;aspect=fixed;imageAspect=0;image=https://www.datocms-assets.com/2885/1620155116-brandhcterraformverticalcolor.svg;" vertex="1" parent="1">
          <mxGeometry x="280" y="171" width="118.22" height="125" as="geometry" />
        </mxCell>
        <mxCell id="IELXht5eR1evjBUBIcLk-6" value="" style="endArrow=classic;html=1;rounded=0;exitX=1;exitY=0.5;exitDx=0;exitDy=0;entryX=0;entryY=0.5;entryDx=0;entryDy=0;" edge="1" parent="1" source="IELXht5eR1evjBUBIcLk-2" target="IELXht5eR1evjBUBIcLk-5">
          <mxGeometry width="50" height="50" relative="1" as="geometry">
            <mxPoint x="390" y="440" as="sourcePoint" />
            <mxPoint x="440" y="390" as="targetPoint" />
          </mxGeometry>
        </mxCell>
        <mxCell id="IELXht5eR1evjBUBIcLk-7" value="" style="endArrow=classic;html=1;rounded=0;exitX=1;exitY=0.5;exitDx=0;exitDy=0;entryX=0;entryY=0.5;entryDx=0;entryDy=0;entryPerimeter=0;" edge="1" parent="1" source="IELXht5eR1evjBUBIcLk-5" target="IELXht5eR1evjBUBIcLk-1">
          <mxGeometry width="50" height="50" relative="1" as="geometry">
            <mxPoint x="430" y="360" as="sourcePoint" />
            <mxPoint x="480" y="310" as="targetPoint" />
          </mxGeometry>
        </mxCell>
        <mxCell id="IELXht5eR1evjBUBIcLk-8" value="" style="outlineConnect=0;dashed=0;verticalLabelPosition=bottom;verticalAlign=top;align=center;html=1;shape=mxgraph.aws3.parameter_store;fillColor=#759C3E;gradientColor=none;" vertex="1" parent="1">
          <mxGeometry x="697.5" y="120" width="75" height="102" as="geometry" />
        </mxCell>
        <mxCell id="IELXht5eR1evjBUBIcLk-9" style="edgeStyle=orthogonalEdgeStyle;rounded=0;orthogonalLoop=1;jettySize=auto;html=1;exitX=1;exitY=0.5;exitDx=0;exitDy=0;exitPerimeter=0;entryX=0;entryY=0.5;entryDx=0;entryDy=0;entryPerimeter=0;" edge="1" parent="1" source="IELXht5eR1evjBUBIcLk-1" target="IELXht5eR1evjBUBIcLk-8">
          <mxGeometry relative="1" as="geometry" />
        </mxCell>
        <mxCell id="IELXht5eR1evjBUBIcLk-10" value="Automated process" style="text;html=1;strokeColor=none;fillColor=none;align=center;verticalAlign=middle;whiteSpace=wrap;rounded=0;fontStyle=1" vertex="1" parent="1">
          <mxGeometry x="461.5" y="110" width="130" height="30" as="geometry" />
        </mxCell>
        <mxCell id="IELXht5eR1evjBUBIcLk-12" value="EC2 Image Builder" style="text;html=1;strokeColor=none;fillColor=none;align=center;verticalAlign=middle;whiteSpace=wrap;rounded=0;fontStyle=1" vertex="1" parent="1">
          <mxGeometry x="461.5" y="282" width="130" height="30" as="geometry" />
        </mxCell>
        <mxCell id="IELXht5eR1evjBUBIcLk-13" value="SSM Parameter Store" style="text;html=1;strokeColor=none;fillColor=none;align=center;verticalAlign=middle;whiteSpace=wrap;rounded=0;fontStyle=1" vertex="1" parent="1">
          <mxGeometry x="670" y="222" width="130" height="30" as="geometry" />
        </mxCell>
        <mxCell id="IELXht5eR1evjBUBIcLk-14" value="" style="outlineConnect=0;dashed=0;verticalLabelPosition=bottom;verticalAlign=top;align=center;html=1;shape=mxgraph.aws3.ami;fillColor=#F58534;gradientColor=none;" vertex="1" parent="1">
          <mxGeometry x="697.5" y="256.5" width="60" height="63" as="geometry" />
        </mxCell>
        <mxCell id="IELXht5eR1evjBUBIcLk-15" value="Golden AMIs" style="text;html=1;strokeColor=none;fillColor=none;align=center;verticalAlign=middle;whiteSpace=wrap;rounded=0;fontStyle=1" vertex="1" parent="1">
          <mxGeometry x="662.5" y="330" width="130" height="30" as="geometry" />
        </mxCell>
      </root>
    </mxGraphModel>
  </diagram>
</mxfile>
